<?xml version="1.0" standalone="no"?>
<!DOCTYPE svg PUBLIC "-//W3C//DTD SVG 20010904//EN"
 "http://www.w3.org/TR/2001/REC-SVG-20010904/DTD/svg10.dtd">
<svg version="1.0" xmlns="http://www.w3.org/2000/svg"
 width="93.000000pt" height="76.000000pt" viewBox="0 0 93.000000 76.000000"
 preserveAspectRatio="xMidYMid meet">

<g transform="translate(0.000000,76.000000) scale(0.100000,-0.100000)"
fill="#000000" stroke="none">
<path d="M594 716 c-7 -7 -15 -31 -19 -54 -4 -23 -10 -42 -15 -42 -4 0 -11
-21 -15 -47 -4 -27 -10 -41 -13 -33 -9 25 -40 52 -52 45 -11 -7 -4 -45 10 -55
14 -11 20 -43 14 -81 -9 -57 -24 -48 -24 16 0 30 -4 55 -10 55 -6 0 -10 -30
-10 -70 0 -75 -7 -83 -42 -50 -49 45 -109 16 -111 -54 -1 -28 -5 -42 -11 -36
-13 13 -63 13 -71 0 -3 -5 -15 -10 -25 -10 -21 0 -37 -40 -25 -59 3 -6 -2 -11
-12 -11 -10 0 -26 -9 -36 -20 -19 -22 -23 -50 -7 -50 6 0 10 -11 10 -25 0 -14
5 -25 10 -25 6 0 10 7 10 15 0 10 10 15 30 15 17 0 30 5 30 11 0 7 8 17 17 24
15 11 15 15 2 36 -25 39 -30 59 -14 59 7 0 15 -10 17 -22 2 -13 11 -24 21 -26
17 -3 17 -1 2 33 -18 45 -18 45 -2 45 7 0 19 -9 27 -20 8 -11 25 -20 37 -20
18 0 23 6 23 25 0 23 4 25 45 25 38 0 45 3 45 20 0 13 7 20 20 20 11 0 20 7
20 15 0 8 7 15 16 15 22 0 44 25 45 52 1 22 1 21 11 -4 5 -16 14 -28 19 -28 5
0 9 -31 9 -70 0 -69 -12 -91 -26 -47 -7 24 -38 57 -53 57 -10 0 -21 -24 -21
-49 0 -17 33 -51 50 -51 6 0 10 -4 10 -10 0 -22 -32 -8 -69 30 -42 43 -56 49
-65 24 -11 -29 -6 -55 12 -61 9 -4 21 -12 25 -20 4 -7 15 -13 22 -13 9 0 15
-10 15 -25 0 -14 -4 -25 -10 -25 -5 0 -10 6 -10 13 0 18 -70 51 -82 39 -18
-18 2 -53 33 -59 34 -7 36 -14 9 -31 -24 -15 -26 -32 -4 -32 17 0 54 36 54 52
0 4 9 8 20 8 16 0 20 7 20 30 0 24 4 30 21 30 12 0 23 8 26 19 3 11 16 22 29
25 22 6 24 11 24 76 l0 70 35 0 c25 0 35 4 35 15 0 9 7 18 15 21 9 4 15 19 15
35 0 24 4 29 25 29 23 0 25 4 25 45 0 25 5 45 10 45 6 0 10 5 10 10 0 6 9 20
20 32 21 23 27 48 10 48 -5 0 -10 -6 -10 -14 0 -8 -9 -18 -20 -21 -11 -3 -20
-12 -20 -20 0 -8 -7 -11 -20 -8 -24 6 -50 -18 -50 -47 0 -11 -7 -23 -15 -26
-8 -4 -15 -13 -15 -21 0 -8 -5 -11 -11 -7 -12 7 -59 -15 -59 -28 0 -4 14 -8
30 -8 26 0 30 -4 30 -26 0 -23 -3 -25 -32 -22 -30 3 -33 7 -36 38 -2 19 -9 38
-15 42 -9 6 -9 8 -1 8 7 0 13 24 16 59 3 37 10 65 21 75 9 10 17 25 17 34 0 9
3 27 6 40 7 24 -5 29 -22 8z m136 -140 c0 -2 -7 -7 -16 -10 -8 -3 -12 -2 -9 4
6 10 25 14 25 6z m0 -61 c0 -8 -7 -15 -15 -15 -8 0 -15 7 -15 15 0 8 7 15 15
15 8 0 15 -7 15 -15z m-336 -131 c11 -28 6 -44 -13 -44 -24 0 -43 23 -35 44 8
21 40 21 48 0z m54 -144 c11 -18 10 -19 -13 -8 -26 12 -34 28 -12 28 7 0 18
-9 25 -20z m-274 -55 c3 -9 0 -15 -9 -15 -8 0 -15 7 -15 15 0 8 4 15 9 15 5 0
11 -7 15 -15z m256 -35 c0 -5 -4 -10 -10 -10 -5 0 -10 5 -10 10 0 6 5 10 10
10 6 0 10 -4 10 -10z"/>
<path d="M277 670 c-9 -9 -19 -30 -23 -46 -4 -23 -11 -30 -27 -30 -19 1 -22
-5 -25 -47 -3 -44 -1 -48 25 -58 30 -11 111 -5 126 10 6 6 3 28 -7 57 -9 26
-16 58 -16 71 0 13 -8 31 -18 41 -16 16 -19 17 -35 2z m43 -128 c16 -6 12 -22
-5 -22 -8 0 -15 -4 -15 -10 0 -5 -11 -10 -25 -10 -14 0 -25 5 -25 10 0 6 -7
10 -15 10 -10 0 -15 10 -15 29 0 28 1 29 43 24 37 -4 40 -3 25 10 -20 16 -24
37 -8 37 6 0 11 8 11 18 1 9 5 -8 10 -38 5 -30 14 -56 19 -58z"/>
<path d="M663 303 c-7 -2 -13 -20 -13 -38 0 -21 -6 -38 -16 -43 -8 -5 -18 -27
-21 -50 l-6 -42 50 0 c28 0 65 3 82 6 26 6 31 11 31 35 0 16 -4 29 -9 29 -5 0
-12 18 -16 40 -10 59 -39 81 -82 63z m46 -49 c2 -10 7 -21 11 -24 4 -3 10 -17
14 -32 5 -22 3 -28 -9 -28 -9 0 -18 -7 -21 -15 -8 -20 -64 -20 -64 -1 0 25 12
46 26 46 10 0 14 13 14 41 0 42 21 52 29 13z"/>
</g>
</svg>
